<svg width="195" height="67" viewBox="0 0 195 67" fill="none" xmlns="http://www.w3.org/2000/svg">
<path d="M12.1094 14L21.0547 43.2969H21.3867L30.332 14H41.1523L27.6563 54H14.7852L1.28906 14H12.1094Z" fill="black"/>
<path d="M136.336 28.4922H126.57C126.44 27.4896 126.173 26.5846 125.77 25.7773C125.366 24.9701 124.832 24.2799 124.168 23.707C123.504 23.1341 122.716 22.6979 121.805 22.3984C120.906 22.0859 119.91 21.9297 118.816 21.9297C116.876 21.9297 115.203 22.4049 113.797 23.3555C112.404 24.306 111.329 25.6797 110.574 27.4766C109.832 29.2734 109.461 31.4479 109.461 34C109.461 36.6562 109.839 38.8828 110.594 40.6797C111.362 42.4635 112.436 43.8112 113.816 44.7227C115.21 45.6211 116.857 46.0703 118.758 46.0703C119.826 46.0703 120.796 45.9336 121.668 45.6602C122.553 45.3867 123.328 44.9896 123.992 44.4688C124.669 43.9349 125.223 43.2904 125.652 42.5352C126.095 41.7669 126.401 40.901 126.57 39.9375L136.336 39.9961C136.167 41.7669 135.652 43.5117 134.793 45.2305C133.947 46.9492 132.781 48.5182 131.297 49.9375C129.813 51.3437 128.003 52.4635 125.867 53.2969C123.745 54.1302 121.31 54.5469 118.563 54.5469C114.943 54.5469 111.701 53.7526 108.836 52.1641C105.984 50.5625 103.732 48.2318 102.078 45.1719C100.424 42.112 99.5977 38.388 99.5977 34C99.5977 29.599 100.438 25.8685 102.117 22.8086C103.797 19.7487 106.069 17.4245 108.934 15.8359C111.798 14.2474 115.008 13.4531 118.563 13.4531C120.984 13.4531 123.224 13.7917 125.281 14.4688C127.339 15.1328 129.148 16.1094 130.711 17.3984C132.273 18.6745 133.543 20.2435 134.52 22.1055C135.496 23.9674 136.102 26.0964 136.336 28.4922Z" fill="black"/>
<path d="M87.7678 35.7678C88.7441 34.7915 88.7441 33.2085 87.7678 32.2322L71.8579 16.3223C70.8816 15.346 69.2986 15.346 68.3223 16.3223C67.346 17.2986 67.346 18.8816 68.3223 19.8579L82.4645 34L68.3223 48.1421C67.346 49.1184 67.346 50.7014 68.3223 51.6777C69.2986 52.654 70.8816 52.654 71.8579 51.6777L87.7678 35.7678ZM43 36.5H86V31.5H43V36.5Z" fill="white"/>
<path d="M193.768 35.7678C194.744 34.7915 194.744 33.2085 193.768 32.2322L177.858 16.3223C176.882 15.346 175.299 15.346 174.322 16.3223C173.346 17.2986 173.346 18.8816 174.322 19.8579L188.464 34L174.322 48.1421C173.346 49.1184 173.346 50.7014 174.322 51.6777C175.299 52.654 176.882 52.654 177.858 51.6777L193.768 35.7678ZM149 36.5H192V31.5H149V36.5Z" fill="white"/>
</svg>
